<svg aria-hidden="true" style="width:0;height:0;position:absolute;overflow:hidden" xmlns="http://www.w3.org/2000/svg"><defs><symbol id="icon-search" viewBox="0 0 32 32"><path stroke-linejoin="round" stroke-linecap="round" stroke-width="3" d="M14.666 25.334c5.891 0 10.667-4.776 10.667-10.667S20.557 4 14.666 4 3.999 8.776 3.999 14.667s4.776 10.667 10.667 10.667zM28 28l-5.8-5.8"/></symbol><symbol id="icon-logo" viewBox="0 0 196 32"><path fill="#ed1d24" style="fill:var(--color2,#ed1d24)" d="M0 1h94v30H0V1z"/><path fill="#fafafa" style="fill:var(--color1,#fafafa)" d="M4 26.972V7.028h4.43l1.606 10.256 1.58-10.256h4.512V27h-3.6v-9.63l-1.578 9.6H9.096l-1.58-9.514v9.516H4zM23.94 7.028l2.936 19.944H23.36l-.388-3.078h-2.714l-.416 3.078h-3.46l2.906-19.944h4.652zm-1.328 13.676-.998-8.376-.94 8.376h1.938zm8.364-13.676c.646 0 1.254.104 1.826.314a4.217 4.217 0 0 1 1.58.998c.46.436.84 1.006 1.134 1.708.314.704.518 1.558.61 2.564.13 1.236.092 2.27-.11 3.106-.186.816-.416 1.472-.694 1.966a4.213 4.213 0 0 1-1.126 1.418l-.008.006 2.298 7.864H32.94l-1.69-6.696-.776.142v6.554h-3.488l.028-19.944h3.96zm-.5 9.858c.426-.038.776-.142 1.054-.314.276-.19.506-.426.692-.712.179-.277.313-.602.383-.95l.003-.018c.071-.333.112-.715.112-1.106v-.006c0-.4-.038-.788-.112-1.168a3.528 3.528 0 0 0-.369-1.073l.009.019a1.973 1.973 0 0 0-.684-.763l-.008-.005c-.276-.19-.636-.286-1.08-.286v6.382zm8.66-9.858 1.55 12.024L42.32 7.028h3.49l-3.074 19.944h-4.1l-3.1-19.944h3.6zm6.892 19.944V7.028h6.508v3.534H49.6v4.5h2.964v3.704h-3.13v4.5h3.158v3.706h-6.564zM57.114 7v16.38h2.99V27H53.68V7.028L57.114 7zm3.84 10c0-1.5.13-2.86.388-4.074.26-1.234.62-2.288 1.08-3.162.462-.874 1.026-1.548 1.69-2.024.601-.444 1.356-.711 2.174-.711s1.573.267 2.184.718l-.01-.007c.664.476 1.228 1.15 1.688 2.024.462.874.822 1.928 1.08 3.162.26 1.216.388 2.574.388 4.074s-.13 2.868-.388 4.102c-.258 1.216-.618 2.26-1.08 3.134-.46.874-1.024 1.548-1.688 2.024-.601.444-1.356.71-2.174.71s-1.573-.267-2.184-.717l.01.007c-.664-.476-1.228-1.15-1.69-2.024-.46-.874-.82-1.918-1.08-3.134a19.552 19.552 0 0 1-.389-3.931l.001-.18V17zm3.434.056c0 .95.046 1.814.14 2.594.092.78.22 1.452.386 2.022.168.552.36.98.582 1.282.24.304.5.456.776.456s.526-.152.748-.456c.24-.304.434-.73.58-1.28.168-.572.296-1.246.388-2.024.092-.78.14-1.644.14-2.594 0-.948-.048-1.812-.14-2.592a11.834 11.834 0 0 0-.409-2.106l.021.084c-.146-.552-.34-.98-.58-1.282-.222-.304-.472-.456-.748-.456-.278 0-.536.152-.776.456-.22.304-.414.73-.58 1.28-.172.58-.309 1.267-.384 1.973l-.004.051c-.094.78-.14 1.644-.14 2.592zm18.636.058c0 .664-.008 1.376-.026 2.136 0 .74-.048 1.482-.14 2.222-.079.774-.224 1.48-.435 2.157l.021-.077a5.333 5.333 0 0 1-.922 1.777l.008-.011c-.406.505-.916.91-1.498 1.187l-.026.011c-.628.304-1.402.456-2.326.456-1.274 0-2.27-.228-2.99-.684a4.19 4.19 0 0 1-1.57-1.91l-.01-.028c-.332-.854-.534-1.88-.608-3.076a84.689 84.689 0 0 1-.082-3.786v-.215.011V7h3.406v10.114a25.56 25.56 0 0 0 .22 3.134c.056.4.13.788.222 1.168.092.36.204.694.332.998.148.284.306.52.472.712.156.155.37.253.607.256h.032a.977.977 0 0 0 .662-.257l-.001.001c.207-.198.376-.434.494-.698l.006-.014c.141-.287.256-.621.327-.971l.005-.027c.079-.307.156-.703.213-1.105l.007-.063c.112-.912.158-1.956.14-3.134V7.028h3.46v10.086zM91.86 7.028c.02 0 .03.19.03.57v1.196c0 .532-.01 1.13-.028 1.796a9.226 9.226 0 0 0-1.803.18l.059-.01a5.532 5.532 0 0 0-1.584.5l.032-.014a3.77 3.77 0 0 0-1.108.768 1.513 1.513 0 0 0-.414 1.042v.013-.001c0 .342.12.636.36.884.258.246.562.494.912.74.37.248.768.522 1.192.826.442.286.84.628 1.19 1.026.37.4.674.884.914 1.454.26.568.388 1.262.388 2.08 0 1.214-.22 2.26-.664 3.132a5.985 5.985 0 0 1-1.757 2.127l-.015.011c-.74.55-1.606.96-2.604 1.224-.93.254-1.997.4-3.099.4h-.06.003v-3.56c.332 0 .766-.06 1.3-.172a5.904 5.904 0 0 0 1.552-.57c.516-.266.96-.618 1.328-1.054.37-.438.546-.98.526-1.624 0-.324-.12-.6-.36-.826a4.782 4.782 0 0 0-.893-.702l-.021-.012a28.082 28.082 0 0 0-.982-.673l-.152-.095a7.376 7.376 0 0 1-1.159-1.021l-.005-.005a5.754 5.754 0 0 1-.872-1.442l-.014-.038c-.22-.572-.332-1.274-.332-2.11 0-.874.24-1.68.72-2.42a7.12 7.12 0 0 1 1.912-1.91 9.678 9.678 0 0 1 2.533-1.235l.069-.019a9.77 9.77 0 0 1 2.908-.456zM107.408 7.028l2.878 19.944h-3.448l-.38-3.078H103.8l-.406 3.078H100l2.85-19.944h4.56zm-1.3 13.676-.98-8.376-.92 8.376h1.9zM113.624 7c.868 0 1.62.17 2.252.512a5.25 5.25 0 0 1 1.628 1.368c.454.57.824 1.234 1.114 1.994.29.74.516 1.51.68 2.308.16.798.27 1.606.324 2.422.072.798.108 1.54.108 2.222 0 1.52-.154 2.8-.46 3.846-.29 1.044-.67 1.9-1.14 2.564a6.56 6.56 0 0 1-1.426 1.557l-.014.011a5.852 5.852 0 0 1-3.046 1.139l-.02.001h-3.338L110.34 7h3.284zm.054 16.922.19-.028c.185-.041.349-.11.496-.204l-.006.004c.216-.132.442-.332.678-.598.252-.266.48-.644.678-1.14.216-.492.388-1.11.516-1.85.144-.76.216-1.692.216-2.792a30.125 30.125 0 0 0-.028-1.173l.002.061a14.612 14.612 0 0 0-.146-1.532l.01.08a11.373 11.373 0 0 0-.289-1.619l.017.079a6.265 6.265 0 0 0-.532-1.431l.016.035a2.793 2.793 0 0 0-.756-.992l-.004-.004a1.635 1.635 0 0 0-1.075-.4h-.039.002l.054 13.504zM124.13 7.028l1.52 12.024 1.6-12.024h3.42l-3.012 19.944h-4.018L120.6 7.028h3.53zm6.754 19.944V7.028h6.378v3.534h-2.876v4.5h2.902v3.704h-3.066v4.5h3.094v3.706h-6.432zm7.472 0V7.028h3.392l2.904 10.314V7.028h3.474v19.944h-3.474l-2.932-9.516V27l-3.364-.028zM159.57 7.028v3.62h-3.42v16.324h-3.338V10.646h-3.664V7.028h10.42zm11.812 10.086c0 .664-.01 1.376-.028 2.136 0 .74-.044 1.482-.134 2.222-.078.774-.222 1.48-.429 2.159l.021-.079a5.353 5.353 0 0 1-.896 1.766 4.198 4.198 0 0 1-1.467 1.187l-.025.011c-.616.304-1.376.456-2.28.456-1.248 0-2.224-.228-2.93-.684a4.165 4.165 0 0 1-1.538-1.91l-.01-.028c-.326-.854-.524-1.88-.596-3.076a86.196 86.196 0 0 1-.082-3.819v-.18.009V7h3.338v10.114c.02 1.178.09 2.222.218 3.134.054.4.126.788.216 1.168.09.36.2.694.326.998.144.284.3.52.46.712a.856.856 0 0 0 .599.256h.028a.95.95 0 0 0 .65-.257h-.001c.2-.19.362-.428.49-.712.144-.304.252-.638.324-.998.092-.38.164-.77.22-1.168.106-.912.152-1.956.134-3.134V7.027h3.392v10.086zm4.698-10.086c.634 0 1.23.104 1.792.314a4.09 4.09 0 0 1 1.546.998c.452.436.824 1.006 1.112 1.708.308.704.508 1.558.598 2.564.126 1.236.09 2.27-.108 3.106-.18.816-.408 1.472-.68 1.966a4.165 4.165 0 0 1-1.105 1.418l-.007.006 2.252 7.864h-3.472l-1.656-6.696-.76.142v6.554h-3.42l.028-19.944h3.88zm-.488 9.858c.416-.038.76-.142 1.03-.314.272-.19.5-.426.68-.712.18-.284.306-.608.38-.968.072-.36.108-.732.108-1.112 0-.4-.036-.788-.108-1.168a3.575 3.575 0 0 0-.363-1.073l.009.019a1.973 1.973 0 0 0-.671-.764l-.007-.005a1.796 1.796 0 0 0-1.064-.286h.004v6.382z"/><path fill="#fafafa" style="fill:var(--color1,#fafafa)" d="M180.55 26.972V7.028h6.378v3.534h-2.878v4.5h2.904v3.704h-3.066v4.5h3.094v3.706h-6.432zm15.314-19.944c.02 0 .028.19.028.57v1.196c0 .532-.01 1.13-.028 1.796-.56 0-1.13.056-1.71.17a5.325 5.325 0 0 0-1.551.5l.031-.014c-.42.198-.779.456-1.083.767l-.001.001a1.528 1.528 0 0 0-.408 1.042v.013-.001c0 .342.118.636.354.884.252.246.55.494.894.74.362.248.752.522 1.168.826.434.286.822.628 1.166 1.026.362.4.66.884.896 1.454.254.568.38 1.262.38 2.08 0 1.214-.218 2.26-.652 3.132a5.972 5.972 0 0 1-1.722 2.128l-.014.01c-.724.55-1.574.96-2.552 1.224-.976.266-2.008.4-3.092.4v-3.56c.324 0 .75-.06 1.274-.172a5.672 5.672 0 0 0 1.52-.57 4.257 4.257 0 0 0 1.296-1.047l.006-.007c.362-.438.534-.98.516-1.624 0-.324-.118-.6-.352-.826a4.749 4.749 0 0 0-.876-.703l-.02-.012a29.627 29.627 0 0 0-.97-.678l-.142-.09a7.22 7.22 0 0 1-1.134-1.02l-.006-.006a5.739 5.739 0 0 1-.854-1.441l-.014-.039c-.218-.572-.326-1.274-.326-2.11 0-.874.234-1.68.706-2.42a7.1 7.1 0 0 1 1.849-1.895l.023-.015a9.39 9.39 0 0 1 2.483-1.235l.067-.019a9.203 9.203 0 0 1 2.848-.456h.002zM194 3h-92V1h92v2zm0 28h-92v-2h92v2z"/></symbol><symbol id="icon-hero-arrow" viewBox="0 0 34 32"><path d="M25.588 15.206 15.275 25.519l-1.097-1.097 10.313-10.313H14.178v-1.552H27.14v12.962h-1.552V15.206z"/></symbol><symbol id="icon-facebook" viewBox="0 0 18 32"><path d="M14.45 5.602h2.924V.655a40.727 40.727 0 0 0-4.262-.218c-4.231 0-7.124 2.582-7.124 7.311v4.076H1.212v5.538h4.776v14.187h5.724V17.362h4.76l.716-5.538h-5.476V8.293c0-1.633.436-2.691 2.738-2.691z"/></symbol><symbol id="icon-insta" viewBox="0 0 32 32"><path d="M23.983 6.229a1.794 1.794 0 0 0-1.758 2.141 1.794 1.794 0 0 0 2.443 1.306 1.79 1.79 0 0 0 1.106-1.656 1.792 1.792 0 0 0-1.792-1.792zm6.869 3.614a11.33 11.33 0 0 0-.687-3.629 7.38 7.38 0 0 0-1.732-2.643 7.01 7.01 0 0 0-2.643-1.717 10.905 10.905 0 0 0-3.629-.702c-1.583-.09-2.091-.09-6.152-.09s-4.57 0-6.152.09a10.905 10.905 0 0 0-3.629.702 7.135 7.135 0 0 0-2.643 1.717 7.01 7.01 0 0 0-1.717 2.643 10.905 10.905 0 0 0-.702 3.629c-.09 1.583-.09 2.091-.09 6.153s0 4.57.09 6.152c.026 1.241.263 2.468.702 3.629.365 1 .952 1.904 1.717 2.643a7.135 7.135 0 0 0 2.643 1.717c1.161.439 2.388.676 3.629.702 1.583.09 2.091.09 6.152.09s4.57 0 6.152-.09a10.905 10.905 0 0 0 3.629-.702c1-.365 1.904-.952 2.643-1.717a7.243 7.243 0 0 0 1.732-2.643 11.33 11.33 0 0 0 .687-3.629c0-1.583.09-2.091.09-6.152s0-4.57-.09-6.153zm-2.688 12.126a8.39 8.39 0 0 1-.508 2.778 4.556 4.556 0 0 1-1.12 1.717 4.763 4.763 0 0 1-1.717 1.12 8.39 8.39 0 0 1-2.778.508c-1.493.075-2.046.09-5.973.09s-4.48 0-5.973-.09a8.566 8.566 0 0 1-2.897-.448 4.885 4.885 0 0 1-1.643-1.12 4.48 4.48 0 0 1-1.105-1.717 8.25 8.25 0 0 1-.597-2.837c0-1.493-.09-2.046-.09-5.973s0-4.48.09-5.973a8.281 8.281 0 0 1 .523-2.837 4.482 4.482 0 0 1 1.18-1.643 4.7 4.7 0 0 1 1.643-1.195 8.58 8.58 0 0 1 2.837-.508c1.493 0 2.046-.09 5.973-.09s4.48 0 5.973.09a8.39 8.39 0 0 1 2.778.508 4.56 4.56 0 0 1 1.777 1.195c.489.459.872 1.02 1.12 1.643a8.37 8.37 0 0 1 .508 2.837c.075 1.493.09 2.046.09 5.973s-.015 4.48-.09 5.973zM16.008 8.335a7.667 7.667 0 0 0-7.067 4.739 7.66 7.66 0 0 0 10.017 9.997 7.657 7.657 0 0 0 4.726-7.077 7.645 7.645 0 0 0-7.675-7.66zm0 12.634a4.979 4.979 0 0 1-4.595-3.07 4.975 4.975 0 0 1 3.624-6.78 4.974 4.974 0 0 1 5.564 6.781 4.965 4.965 0 0 1-2.691 2.691 4.97 4.97 0 0 1-1.903.379z"/></symbol><symbol id="icon-twitter" viewBox="0 0 32 32"><path stroke-linejoin="round" stroke-linecap="round" stroke-width="3.2" d="M30.667 4a14.542 14.542 0 0 1-4.187 2.04 5.975 5.975 0 0 0-6.637-1.661A5.979 5.979 0 0 0 16 10.04v1.333c-2.343.061-4.665-.459-6.759-1.513S4.902 6.297 3.555 4.379c0 0-4.889 12.954 7.111 18.287a15.519 15.519 0 0 1-9.333 2.667C13.333 32 28 25.333 28 10a5.966 5.966 0 0 0-.107-1.107A10.288 10.288 0 0 0 30.666 4z"/></symbol></defs></svg>