<svg aria-hidden="true" style="position: absolute; width: 0; height: 0; overflow: hidden;" version="1.1" xmlns="http://www.w3.org/2000/svg" xmlns:xlink="http://www.w3.org/1999/xlink">
<defs>
<symbol id="icon-search" viewBox="0 0 32 32">
<path   stroke-linejoin="round" stroke-linecap="round" stroke-miterlimit="4" stroke-width="3" d="M14.666 25.334c5.891 0 10.667-4.776 10.667-10.667s-4.776-10.667-10.667-10.667v0c-5.891 0-10.667 4.776-10.667 10.667s4.776 10.667 10.667 10.667v0zM28 28l-5.8-5.8"></path>
</symbol>
<symbol id="icon-logo" viewBox="0 0 196 32">
<path fill="#ed1d24" style="fill: var(--color2, #ed1d24)" d="M0 1h94v30h-94v-30z"></path>
<path fill="#fafafa" style="fill: var(--color1, #fafafa)" d="M4 26.972v-19.944h4.43l1.606 10.256 1.58-10.256h4.512v19.972h-3.6v-9.63l-1.578 9.6h-1.854l-1.58-9.514v9.516h-3.516zM23.94 7.028l2.936 19.944h-3.516l-0.388-3.078h-2.714l-0.416 3.078h-3.46l2.906-19.944h4.652zM22.612 20.704l-0.998-8.376-0.94 8.376h1.938zM30.976 7.028c0.646 0 1.254 0.104 1.826 0.314 0.619 0.222 1.147 0.563 1.58 0.998l0 0c0.46 0.436 0.84 1.006 1.134 1.708 0.314 0.704 0.518 1.558 0.61 2.564 0.13 1.236 0.092 2.27-0.11 3.106-0.186 0.816-0.416 1.472-0.694 1.966-0.279 0.566-0.662 1.041-1.126 1.418l-0.008 0.006 2.298 7.864h-3.546l-1.69-6.696-0.776 0.142v6.554h-3.488l0.028-19.944h3.96zM30.476 16.886c0.426-0.038 0.776-0.142 1.054-0.314 0.276-0.19 0.506-0.426 0.692-0.712 0.179-0.277 0.313-0.602 0.383-0.95l0.003-0.018c0.071-0.333 0.112-0.715 0.112-1.106 0-0.002 0-0.004 0-0.006v0c0-0.4-0.038-0.788-0.112-1.168-0.069-0.395-0.195-0.749-0.369-1.073l0.009 0.019c-0.162-0.317-0.397-0.577-0.684-0.763l-0.008-0.005c-0.276-0.19-0.636-0.286-1.080-0.286v6.382zM39.136 7.028l1.55 12.024 1.634-12.024h3.49l-3.074 19.944h-4.1l-3.1-19.944h3.6zM46.028 26.972v-19.944h6.508v3.534h-2.936v4.5h2.964v3.704h-3.13v4.5h3.158v3.706h-6.564zM57.114 7v16.38h2.99v3.62h-6.424v-19.972l3.434-0.028zM60.954 17c0-1.5 0.13-2.86 0.388-4.074 0.26-1.234 0.62-2.288 1.080-3.162 0.462-0.874 1.026-1.548 1.69-2.024 0.601-0.444 1.356-0.711 2.174-0.711s1.573 0.267 2.184 0.718l-0.010-0.007c0.664 0.476 1.228 1.15 1.688 2.024 0.462 0.874 0.822 1.928 1.080 3.162 0.26 1.216 0.388 2.574 0.388 4.074s-0.13 2.868-0.388 4.102c-0.258 1.216-0.618 2.26-1.080 3.134-0.46 0.874-1.024 1.548-1.688 2.024-0.601 0.444-1.356 0.71-2.174 0.71s-1.573-0.267-2.184-0.717l0.010 0.007c-0.664-0.476-1.228-1.15-1.69-2.024-0.46-0.874-0.82-1.918-1.080-3.134-0.247-1.182-0.389-2.54-0.389-3.931 0-0.060 0-0.12 0.001-0.18l-0 0.009zM64.388 17.056c0 0.95 0.046 1.814 0.14 2.594 0.092 0.78 0.22 1.452 0.386 2.022 0.168 0.552 0.36 0.98 0.582 1.282 0.24 0.304 0.5 0.456 0.776 0.456s0.526-0.152 0.748-0.456c0.24-0.304 0.434-0.73 0.58-1.28 0.168-0.572 0.296-1.246 0.388-2.024 0.092-0.78 0.14-1.644 0.14-2.594 0-0.948-0.048-1.812-0.14-2.592-0.079-0.757-0.216-1.443-0.409-2.106l0.021 0.084c-0.146-0.552-0.34-0.98-0.58-1.282-0.222-0.304-0.472-0.456-0.748-0.456-0.278 0-0.536 0.152-0.776 0.456-0.22 0.304-0.414 0.73-0.58 1.28-0.172 0.58-0.309 1.267-0.384 1.973l-0.004 0.051c-0.094 0.78-0.14 1.644-0.14 2.592zM83.024 17.114c0 0.664-0.008 1.376-0.026 2.136 0 0.74-0.048 1.482-0.14 2.222-0.079 0.774-0.224 1.48-0.435 2.157l0.021-0.077c-0.205 0.677-0.518 1.265-0.922 1.777l0.008-0.011c-0.406 0.505-0.916 0.91-1.498 1.187l-0.026 0.011c-0.628 0.304-1.402 0.456-2.326 0.456-1.274 0-2.27-0.228-2.99-0.684-0.707-0.47-1.253-1.131-1.57-1.91l-0.010-0.028c-0.332-0.854-0.534-1.88-0.608-3.076-0.052-1.13-0.082-2.454-0.082-3.786 0-0.072 0-0.144 0-0.215l-0 0.011v-10.284h3.406v10.114c0.018 1.178 0.092 2.222 0.22 3.134 0.056 0.4 0.13 0.788 0.222 1.168 0.092 0.36 0.204 0.694 0.332 0.998 0.148 0.284 0.306 0.52 0.472 0.712 0.156 0.155 0.37 0.253 0.607 0.256h0.001c0.009 0 0.020 0 0.031 0 0.255 0 0.487-0.097 0.662-0.257l-0.001 0.001c0.207-0.198 0.376-0.434 0.494-0.698l0.006-0.014c0.141-0.287 0.256-0.621 0.327-0.971l0.005-0.027c0.079-0.307 0.156-0.703 0.213-1.105l0.007-0.063c0.112-0.912 0.158-1.956 0.14-3.134v-10.086h3.46v10.086zM91.86 7.028c0.020 0 0.030 0.19 0.030 0.57v1.196c0 0.532-0.010 1.13-0.028 1.796-0.618 0.001-1.22 0.063-1.803 0.18l0.059-0.010c-0.581 0.093-1.102 0.263-1.584 0.5l0.032-0.014c-0.429 0.197-0.796 0.455-1.108 0.768l-0 0c-0.256 0.271-0.414 0.638-0.414 1.042 0 0.004 0 0.008 0 0.013v-0.001c0 0.342 0.12 0.636 0.36 0.884 0.258 0.246 0.562 0.494 0.912 0.74 0.37 0.248 0.768 0.522 1.192 0.826 0.442 0.286 0.84 0.628 1.19 1.026 0.37 0.4 0.674 0.884 0.914 1.454 0.26 0.568 0.388 1.262 0.388 2.080 0 1.214-0.22 2.26-0.664 3.132-0.428 0.86-1.027 1.576-1.757 2.127l-0.015 0.011c-0.74 0.55-1.606 0.96-2.604 1.224-0.93 0.254-1.997 0.4-3.099 0.4-0.020 0-0.040-0-0.060-0h0.003v-3.56c0.332 0 0.766-0.060 1.3-0.172 0.536-0.114 1.052-0.304 1.552-0.57 0.516-0.266 0.96-0.618 1.328-1.054 0.37-0.438 0.546-0.98 0.526-1.624 0-0.324-0.12-0.6-0.36-0.826-0.268-0.268-0.568-0.504-0.893-0.702l-0.021-0.012c-0.238-0.174-0.608-0.426-0.982-0.673l-0.152-0.095c-0.435-0.31-0.816-0.648-1.159-1.021l-0.005-0.005c-0.353-0.425-0.65-0.914-0.872-1.442l-0.014-0.038c-0.22-0.572-0.332-1.274-0.332-2.11 0-0.874 0.24-1.68 0.72-2.42 0.5-0.742 1.136-1.38 1.912-1.91 0.748-0.515 1.611-0.941 2.533-1.235l0.069-0.019c0.98-0.304 1.948-0.456 2.908-0.456z"></path>
<path fill="#fafafa" style="fill: var(--color1, #fafafa)" d="M107.408 7.028l2.878 19.944h-3.448l-0.38-3.078h-2.658l-0.406 3.078h-3.394l2.85-19.944h4.56zM106.108 20.704l-0.98-8.376-0.92 8.376h1.9zM113.624 7c0.868 0 1.62 0.17 2.252 0.512 0.634 0.342 1.176 0.8 1.628 1.368 0.454 0.57 0.824 1.234 1.114 1.994 0.29 0.74 0.516 1.51 0.68 2.308 0.16 0.798 0.27 1.606 0.324 2.422 0.072 0.798 0.108 1.54 0.108 2.222 0 1.52-0.154 2.8-0.46 3.846-0.29 1.044-0.67 1.9-1.14 2.564-0.401 0.608-0.878 1.126-1.426 1.557l-0.014 0.011c-0.852 0.636-1.903 1.050-3.046 1.139l-0.020 0.001h-3.338l0.054-19.944h3.284zM113.678 23.922l0.19-0.028c0.185-0.041 0.349-0.11 0.496-0.204l-0.006 0.004c0.216-0.132 0.442-0.332 0.678-0.598 0.252-0.266 0.48-0.644 0.678-1.14 0.216-0.492 0.388-1.11 0.516-1.85 0.144-0.76 0.216-1.692 0.216-2.792-0.002-0.397-0.011-0.786-0.028-1.173l0.002 0.061c-0.024-0.538-0.072-1.039-0.146-1.532l0.010 0.080c-0.063-0.586-0.159-1.109-0.289-1.619l0.017 0.079c-0.129-0.531-0.306-0.996-0.532-1.431l0.016 0.035c-0.182-0.396-0.439-0.729-0.756-0.992l-0.004-0.004c-0.287-0.249-0.663-0.4-1.075-0.4-0.013 0-0.026 0-0.039 0l0.002-0 0.054 13.504zM124.13 7.028l1.52 12.024 1.6-12.024h3.42l-3.012 19.944h-4.018l-3.040-19.944h3.53zM130.884 26.972v-19.944h6.378v3.534h-2.876v4.5h2.902v3.704h-3.066v4.5h3.094v3.706h-6.432zM138.356 26.972v-19.944h3.392l2.904 10.314v-10.314h3.474v19.944h-3.474l-2.932-9.516v9.544l-3.364-0.028zM159.57 7.028v3.62h-3.42v16.324h-3.338v-16.326h-3.664v-3.618h10.42zM171.382 17.114c0 0.664-0.010 1.376-0.028 2.136 0 0.74-0.044 1.482-0.134 2.222-0.078 0.774-0.222 1.48-0.429 2.159l0.021-0.079c-0.2 0.666-0.498 1.254-0.896 1.766-0.396 0.504-0.895 0.909-1.467 1.187l-0.025 0.011c-0.616 0.304-1.376 0.456-2.28 0.456-1.248 0-2.224-0.228-2.93-0.684-0.695-0.473-1.231-1.134-1.538-1.91l-0.010-0.028c-0.326-0.854-0.524-1.88-0.596-3.076-0.052-1.14-0.082-2.476-0.082-3.819 0-0.060 0-0.12 0-0.18v0.009-10.284h3.338v10.114c0.020 1.178 0.090 2.222 0.218 3.134 0.054 0.4 0.126 0.788 0.216 1.168 0.090 0.36 0.2 0.694 0.326 0.998 0.144 0.284 0.3 0.52 0.46 0.712 0.153 0.155 0.365 0.253 0.599 0.256h0.001c0.008 0 0.017 0 0.027 0 0.251 0 0.48-0.098 0.65-0.257l-0.001 0c0.2-0.19 0.362-0.428 0.49-0.712 0.144-0.304 0.252-0.638 0.324-0.998 0.092-0.38 0.164-0.77 0.22-1.168 0.106-0.912 0.152-1.956 0.134-3.134v-10.086h3.392v10.086zM176.080 7.028c0.634 0 1.23 0.104 1.792 0.314 0.58 0.208 1.094 0.54 1.546 0.998 0.452 0.436 0.824 1.006 1.112 1.708 0.308 0.704 0.508 1.558 0.598 2.564 0.126 1.236 0.090 2.27-0.108 3.106-0.18 0.816-0.408 1.472-0.68 1.966-0.272 0.565-0.647 1.040-1.105 1.418l-0.007 0.006 2.252 7.864h-3.472l-1.656-6.696-0.76 0.142v6.554h-3.42l0.028-19.944h3.88zM175.592 16.886c0.416-0.038 0.76-0.142 1.030-0.314 0.272-0.19 0.5-0.426 0.68-0.712 0.18-0.284 0.306-0.608 0.38-0.968 0.072-0.36 0.108-0.732 0.108-1.112 0-0.4-0.036-0.788-0.108-1.168-0.068-0.395-0.192-0.749-0.363-1.073l0.009 0.019c-0.158-0.316-0.389-0.576-0.671-0.764l-0.007-0.005c-0.277-0.18-0.615-0.288-0.979-0.288-0.028 0-0.057 0.001-0.085 0.002l0.004-0v6.382z"></path>
<path fill="#fafafa" style="fill: var(--color1, #fafafa)" d="M180.55 26.972v-19.944h6.378v3.534h-2.878v4.5h2.904v3.704h-3.066v4.5h3.094v3.706h-6.432zM195.864 7.028c0.020 0 0.028 0.19 0.028 0.57v1.196c0 0.532-0.010 1.13-0.028 1.796-0.56 0-1.13 0.056-1.71 0.17-0.569 0.093-1.080 0.263-1.551 0.5l0.031-0.014c-0.42 0.198-0.779 0.456-1.083 0.767l-0.001 0.001c-0.253 0.273-0.408 0.639-0.408 1.042 0 0.004 0 0.009 0 0.013v-0.001c0 0.342 0.118 0.636 0.354 0.884 0.252 0.246 0.55 0.494 0.894 0.74 0.362 0.248 0.752 0.522 1.168 0.826 0.434 0.286 0.822 0.628 1.166 1.026 0.362 0.4 0.66 0.884 0.896 1.454 0.254 0.568 0.38 1.262 0.38 2.080 0 1.214-0.218 2.26-0.652 3.132-0.417 0.858-1.005 1.573-1.722 2.128l-0.014 0.010c-0.724 0.55-1.574 0.96-2.552 1.224-0.976 0.266-2.008 0.4-3.092 0.4v-3.56c0.324 0 0.75-0.060 1.274-0.172 0.526-0.114 1.032-0.304 1.52-0.57 0.512-0.271 0.945-0.624 1.296-1.047l0.006-0.007c0.362-0.438 0.534-0.98 0.516-1.624 0-0.324-0.118-0.6-0.352-0.826-0.263-0.268-0.557-0.504-0.876-0.703l-0.020-0.012c-0.241-0.178-0.603-0.431-0.97-0.678l-0.142-0.090c-0.426-0.31-0.799-0.647-1.134-1.020l-0.006-0.006c-0.346-0.425-0.638-0.914-0.854-1.441l-0.014-0.039c-0.218-0.572-0.326-1.274-0.326-2.11 0-0.874 0.234-1.68 0.706-2.42 0.505-0.757 1.128-1.392 1.849-1.895l0.023-0.015c0.733-0.515 1.578-0.941 2.483-1.235l0.067-0.019c0.851-0.285 1.83-0.451 2.848-0.456h0.002z"></path>
<path fill="#fafafa" style="fill: var(--color1, #fafafa)" d="M194 3h-92v-2h92v2zM194 31h-92v-2h92v2z"></path>
</symbol>
<symbol id="icon-hero-arrow" viewBox="0 0 34 32">
<path d="M25.588 15.206l-10.313 10.313-1.097-1.097 10.313-10.313h-10.313v-1.552h12.962v12.962h-1.552v-10.313z"></path>
</symbol>
</defs>
</svg>
